<svg width="17" height="13" viewBox="0 0 17 13" fill="none" xmlns="http://www.w3.org/2000/svg">
<path d="M5.29545 0.363636V12H3.88636V1.84091H3.81818L0.977273 3.72727V2.29545L3.88636 0.363636H5.29545ZM12.2784 12.1591C11.6117 12.1591 11.0114 12.0265 10.4773 11.7614C9.94318 11.4962 9.51515 11.1326 9.19318 10.6705C8.87121 10.2083 8.69508 9.68182 8.66477 9.09091H10.0284C10.0814 9.61742 10.3201 10.053 10.7443 10.3977C11.1723 10.7386 11.6837 10.9091 12.2784 10.9091C12.7557 10.9091 13.1799 10.7973 13.5511 10.5739C13.9261 10.3504 14.2197 10.0436 14.4318 9.65341C14.6477 9.25947 14.7557 8.81439 14.7557 8.31818C14.7557 7.81061 14.6439 7.35795 14.4205 6.96023C14.2008 6.55871 13.8977 6.24242 13.5114 6.01136C13.125 5.7803 12.6837 5.66288 12.1875 5.65909C11.8314 5.6553 11.4659 5.71023 11.0909 5.82386C10.7159 5.93371 10.4072 6.07576 10.1648 6.25L8.84659 6.09091L9.55114 0.363636H15.5966V1.61364H10.733L10.3239 5.04545H10.392C10.6307 4.85606 10.9299 4.69886 11.2898 4.57386C11.6496 4.44886 12.0246 4.38636 12.4148 4.38636C13.1269 4.38636 13.7614 4.55682 14.3182 4.89773C14.8788 5.23485 15.3182 5.69697 15.6364 6.28409C15.9583 6.87121 16.1193 7.54167 16.1193 8.29545C16.1193 9.03788 15.9527 9.70076 15.6193 10.2841C15.2898 10.8636 14.8352 11.322 14.2557 11.6591C13.6761 11.9924 13.017 12.1591 12.2784 12.1591Z" fill="url(#paint0_linear_2_6480)"/>
<defs>
<linearGradient id="paint0_linear_2_6480" x1="1.36842e-05" y1="16" x2="20.2884" y2="13.3288" gradientUnits="userSpaceOnUse">
<stop stop-color="#00FFE0"/>
<stop offset="1" stop-color="#ED00C7"/>
</linearGradient>
</defs>
</svg>
