<svg width="30" height="25" viewBox="0 0 30 25" fill="none" xmlns="http://www.w3.org/2000/svg">
<path d="M4.5 4.75C4.5 5.59375 4.92188 6.29688 5.625 6.71875C6.28125 7.14062 7.17188 7.14062 7.875 6.71875C8.53125 6.29688 9 5.59375 9 4.75C9 3.95312 8.53125 3.25 7.875 2.82812C7.17188 2.40625 6.28125 2.40625 5.625 2.82812C4.92188 3.25 4.5 3.95312 4.5 4.75ZM10.5 4.75C10.5 6.10938 9.75 7.32812 8.625 8.03125C7.45312 8.6875 6 8.6875 4.875 8.03125C3.70312 7.32812 3 6.10938 3 4.75C3 3.4375 3.70312 2.21875 4.875 1.51562C6 0.859375 7.45312 0.859375 8.625 1.51562C9.75 2.21875 10.5 3.4375 10.5 4.75ZM15 8.5C13.9219 8.5 12.9375 9.10938 12.375 10C11.8594 10.9375 11.8594 12.1094 12.375 13C12.9375 13.9375 13.9219 14.5 15 14.5C16.0312 14.5 17.0156 13.9375 17.5781 13C18.0938 12.1094 18.0938 10.9375 17.5781 10C17.0156 9.10938 16.0312 8.5 15 8.5ZM15 16C13.3594 16 11.9062 15.1562 11.0625 13.75C10.2656 12.3906 10.2656 10.6562 11.0625 9.25C11.9062 7.89062 13.3594 7 15 7C16.5938 7 18.0469 7.89062 18.8906 9.25C19.6875 10.6562 19.6875 12.3906 18.8906 13.75C18.0469 15.1562 16.5938 16 15 16ZM12.2344 19C9.70312 19 7.59375 21.0156 7.5 23.5H22.4531C22.3594 21.0156 20.25 19 17.7188 19H12.2344ZM12.2344 17.5H17.7188C21.1875 17.5 24 20.3125 24 23.7812C24 24.4844 23.4375 25 22.7344 25H7.21875C6.51562 25 6 24.4375 6 23.7812C6 20.3125 8.76562 17.5 12.2344 17.5ZM24 2.5C23.1562 2.5 22.4531 2.96875 22.0312 3.625C21.6094 4.32812 21.6094 5.21875 22.0312 5.875C22.4531 6.57812 23.1562 7 24 7C24.7969 7 25.5 6.57812 25.9219 5.875C26.3438 5.21875 26.3438 4.32812 25.9219 3.625C25.5 2.96875 24.7969 2.5 24 2.5ZM24 8.5C22.6406 8.5 21.4219 7.79688 20.7188 6.625C20.0625 5.5 20.0625 4.04688 20.7188 2.875C21.4219 1.75 22.6406 1 24 1C25.3125 1 26.5312 1.75 27.2344 2.875C27.8906 4.04688 27.8906 5.5 27.2344 6.625C26.5312 7.79688 25.3125 8.5 24 8.5ZM24.75 11.5H21C21 10.9844 20.9062 10.5156 20.8125 10H24.75C27.6094 10 30 12.3906 30 15.25C30 15.6719 29.625 16 29.25 16C28.8281 16 28.5 15.6719 28.5 15.25C28.5 13.1875 26.8125 11.5 24.75 11.5ZM9 11.5H5.25C3.14062 11.5 1.5 13.1875 1.5 15.25C1.5 15.6719 1.125 16 0.75 16C0.328125 16 0 15.6719 0 15.25C0 12.3906 2.34375 10 5.25 10H9.1875C9.04688 10.5156 9 10.9844 9 11.5Z" fill="#FAFBFF"/>
</svg>
