<svg width="28" height="22" viewBox="0 0 28 22" fill="none" xmlns="http://www.w3.org/2000/svg">
<path d="M3.5 3.125V18.5H2V3.125C2 1.71875 3.17188 0.5 4.625 0.5H23.375C24.7812 0.5 26 1.71875 26 3.125V18.5H24.5V3.125C24.5 2.51562 23.9844 2 23.375 2H4.625C3.96875 2 3.5 2.51562 3.5 3.125ZM11 17.75C11 16.5312 11.9844 15.5 13.25 15.5H17.75C18.9688 15.5 20 16.5312 20 17.75V20H26.75C27.125 20 27.5 20.375 27.5 20.75C27.5 21.1719 27.125 21.5 26.75 21.5H1.25C0.828125 21.5 0.5 21.1719 0.5 20.75C0.5 20.375 0.828125 20 1.25 20H11V17.75ZM13.25 17C12.8281 17 12.5 17.375 12.5 17.75V19.625H18.5V17.75C18.5 17.375 18.125 17 17.75 17H13.25Z" fill="url(#paint0_linear_262_592)"/>
<defs>
<linearGradient id="paint0_linear_262_592" x1="2.00002" y1="23" x2="28.9436" y2="19.0585" gradientUnits="userSpaceOnUse">
<stop stop-color="#00FFE0"/>
<stop offset="1" stop-color="#ED00C7"/>
</linearGradient>
</defs>
</svg>
