<svg width="16" height="17" viewBox="0 0 16 17" fill="none" xmlns="http://www.w3.org/2000/svg">
<path d="M13.9688 6C13.9688 6.53125 13.4375 6.96875 13.3125 7.4375C13.1875 7.9375 13.4375 8.59375 13.1875 9.03125C12.9375 9.46875 12.25 9.5625 11.875 9.90625C11.5312 10.2812 11.4375 10.9688 11 11.2188C10.5625 11.4688 9.90625 11.2188 9.40625 11.3438C8.9375 11.4688 8.5 12 8 12C7.46875 12 7.03125 11.4688 6.5625 11.3438C6.0625 11.2188 5.40625 11.4688 4.96875 11.2188C4.53125 10.9688 4.4375 10.2812 4.09375 9.90625C3.71875 9.5625 3.03125 9.4375 2.78125 9.03125C2.53125 8.59375 2.78125 7.9375 2.65625 7.4375C2.53125 6.96875 2 6.53125 2 6C2 5.5 2.53125 5.0625 2.65625 4.59375C2.78125 4.09375 2.53125 3.4375 2.78125 3C3.03125 2.5625 3.71875 2.46875 4.09375 2.125C4.4375 1.75 4.5625 1.0625 4.96875 0.8125C5.40625 0.5625 6.0625 0.8125 6.5625 0.6875C7.03125 0.5625 7.46875 0 8 0C8.5 0 8.9375 0.5625 9.375 0.6875C9.875 0.8125 10.5312 0.5625 10.9688 0.8125C11.4062 1.0625 11.5 1.75 11.875 2.125C12.2188 2.46875 12.9062 2.5625 13.1562 3C13.4062 3.4375 13.1562 4.09375 13.2812 4.59375C13.4062 5.0625 13.9688 5.5 13.9688 6ZM8 8.5C9.375 8.5 10.5 7.40625 10.5 6C10.5 4.625 9.375 3.5 8 3.5C6.59375 3.5 5.5 4.625 5.5 6C5.5 7.40625 6.59375 8.5 8 8.5Z" fill="url(#paint0_linear_2_6479)"/>
<path opacity="0.4" d="M4.96875 11.2188C5.40625 11.4688 6.0625 11.2188 6.5625 11.3438C6.96875 11.4688 7.375 11.875 7.8125 11.9688L6.3125 15.5625C6.21875 15.8125 5.96875 16 5.65625 16C5.65625 16 5.65625 16 5.625 16C5.34375 16 5.09375 15.8438 4.96875 15.5938L4.28125 14.2812L2.875 14.5625C2.625 14.625 2.34375 14.5312 2.15625 14.3125C1.96875 14.0938 1.9375 13.8125 2.03125 13.5625L3.65625 9.625C3.8125 9.71875 3.96875 9.8125 4.09375 9.90625C4.4375 10.2812 4.53125 10.9688 4.96875 11.2188ZM13.9375 13.5625C14.0312 13.8125 14 14.0938 13.8125 14.3125C13.625 14.5312 13.3438 14.625 13.0938 14.5625L11.6875 14.2812L11 15.5938C10.875 15.875 10.625 16 10.3438 16C10.3125 16 10.3125 16 10.3125 16.0312C10 16 9.75 15.8125 9.65625 15.5625L8.1875 11.9688C8.59375 11.875 9 11.4688 9.40625 11.3438C9.90625 11.2188 10.5625 11.4688 11 11.2188C11.4375 10.9688 11.5312 10.2812 11.875 9.90625C12 9.8125 12.1562 9.71875 12.3125 9.625L13.9375 13.5625Z" fill="url(#paint1_linear_2_6479)"/>
<defs>
<linearGradient id="paint0_linear_2_6479" x1="1.21637e-05" y1="16" x2="17.9624" y2="13.3723" gradientUnits="userSpaceOnUse">
<stop stop-color="#00FFE0"/>
<stop offset="1" stop-color="#ED00C7"/>
</linearGradient>
<linearGradient id="paint1_linear_2_6479" x1="1.21637e-05" y1="16" x2="17.9624" y2="13.3723" gradientUnits="userSpaceOnUse">
<stop stop-color="#00FFE0"/>
<stop offset="1" stop-color="#ED00C7"/>
</linearGradient>
</defs>
</svg>
