<svg width="24" height="24" viewBox="0 0 24 24" fill="none" xmlns="http://www.w3.org/2000/svg">
<path d="M12.5625 0.28125L15.0938 3.14062L18.2812 0.890625C18.5156 0.75 18.8438 0.703125 19.0781 0.84375C19.3125 0.984375 19.5 1.21875 19.5 1.5V7.5C19.5 10.8281 16.7812 13.5 13.5 13.5H12.75V18.6094C14.5781 15.5625 17.9062 13.5 21.75 13.5H22.6875C23.3906 13.5 24 14.1094 24 14.8125C24 19.9219 19.875 24 14.8125 24H12.75H12H11.25H9.1875C4.07812 24 0 19.9219 0 14.8125C0 14.1094 0.5625 13.5 1.3125 13.5H2.25C6.04688 13.5 9.375 15.5625 11.25 18.6094V13.5H10.5C7.17188 13.5 4.5 10.8281 4.5 7.5V1.5C4.5 1.21875 4.64062 0.984375 4.875 0.84375C5.10938 0.75 5.4375 0.75 5.67188 0.890625L8.85938 3.14062L11.4375 0.28125C11.5781 0.09375 11.7656 0 12 0C12.1875 0 12.375 0.09375 12.5625 0.28125ZM12 12H13.5C15.9844 12 18 9.98438 18 7.5V2.95312L15.4219 4.78125C15.0938 4.96875 14.6719 4.92188 14.3906 4.64062L11.9531 1.92188L9.51562 4.64062C9.28125 4.92188 8.85938 4.96875 8.53125 4.78125L6 2.95312V7.5C6 9.98438 8.01562 12 10.5 12H12ZM9.1875 22.5H11.1094C10.4062 18.2812 6.70312 15 2.25 15H1.5C1.59375 19.1719 4.96875 22.5 9.1875 22.5ZM14.8125 22.5C18.9844 22.5 22.3594 19.1719 22.5 15H21.75C17.25 15 13.5469 18.2812 12.8438 22.5H14.8125Z" fill="url(#paint0_linear_143_2)"/>
<defs>
<linearGradient id="paint0_linear_143_2" x1="1.82456e-05" y1="24" x2="26.9436" y2="20.0585" gradientUnits="userSpaceOnUse">
<stop stop-color="#00FFE0"/>
<stop offset="1" stop-color="#ED00C7"/>
</linearGradient>
</defs>
</svg>
