<svg width="25" height="25" viewBox="0 0 25 25" fill="none" xmlns="http://www.w3.org/2000/svg">
<path d="M23.5 21V9H18.25C16.9844 9 16 8.01562 16 6.75V1.5H10C9.15625 1.5 8.5 2.20312 8.5 3V6C8.07812 6 7.65625 6.04688 7.28125 6.1875C7.1875 6.23438 7.04688 6.32812 7 6.32812V6.375V3C7 1.35938 8.3125 0 10 0H17.3125C17.875 0 18.4844 0.28125 18.9062 0.703125L24.2969 6.09375C24.7188 6.51562 25 7.125 25 7.6875V21C25 22.6875 23.6406 24 22 24H11.3594C11.4531 23.7656 11.5 23.5312 11.5 23.25V22.5H22C22.7969 22.5 23.5 21.8438 23.5 21ZM23.4531 7.5C23.4062 7.40625 23.3594 7.26562 23.2656 7.17188L17.8281 1.73438C17.7344 1.64062 17.5938 1.59375 17.5 1.54688V6.75C17.5 7.17188 17.8281 7.5 18.25 7.5H23.4531ZM4.23438 16.8281C4.75 16.875 5.17188 17.1562 5.5 17.5312L5.78125 17.9531L6.25 17.7656C6.71875 17.5781 7.23438 17.5781 7.70312 17.7656L8.17188 17.9531L8.5 17.5312C8.78125 17.1562 9.20312 16.875 9.71875 16.8281L10.2344 16.7344L10.2812 16.2656L11.7812 16.4531L11.6406 17.25C11.5938 17.7656 11.2188 18.1406 10.7031 18.1875L10 18.2812V23.25C10 23.5312 9.8125 23.8125 9.57812 23.9531C9.34375 24.0469 9.0625 24.0469 8.82812 23.9062L7 22.6875L5.125 23.9062C4.9375 24.0469 4.60938 24.0469 4.375 23.9531C4.14062 23.8125 4 23.5312 4 23.25V18.2812L3.25 18.1875C2.73438 18.1406 2.35938 17.7188 2.3125 17.25L2.17188 16.4531C2.17188 16.3594 2.125 16.2656 2.03125 16.2188L1.42188 15.7031C1 15.4219 0.859375 14.8594 1.04688 14.3906L1.375 13.6406C1.42188 13.5938 1.42188 13.4531 1.375 13.3594L1.04688 12.6562C0.859375 12.1875 1 11.625 1.42188 11.3438L2.03125 10.8281L2.96875 12.0469L2.54688 12.3281L2.73438 12.7969C2.92188 13.2656 2.92188 13.7812 2.73438 14.25L2.54688 14.7188L2.96875 15L2.03125 16.2188L2.96875 15C3.34375 15.3281 3.625 15.75 3.67188 16.2656L3.76562 16.7344L4.23438 16.8281L4.14062 17.5312L4.23438 16.8281ZM2.03125 10.8281C2.125 10.7812 2.17188 10.6875 2.17188 10.5938L2.3125 9.79688C2.35938 9.28125 2.73438 8.90625 3.25 8.85938L4.04688 8.71875C4.14062 8.71875 4.23438 8.67188 4.28125 8.57812L4.79688 7.96875C5.07812 7.54688 5.64062 7.40625 6.10938 7.59375L6.85938 7.92188C6.90625 7.92188 7.04688 7.92188 7.14062 7.92188L7.89062 7.59375C8.3125 7.40625 8.875 7.54688 9.20312 7.96875L9.67188 8.57812C9.71875 8.67188 9.8125 8.71875 9.90625 8.71875L10.7031 8.85938C11.2188 8.90625 11.5938 9.28125 11.6875 9.79688L11.7812 10.5938C11.7812 10.6875 11.8281 10.7812 11.9219 10.8281L12.5312 11.3438C12.9531 11.625 13.0938 12.1875 12.9062 12.6562L12.5781 13.3594C12.5781 13.4531 12.5781 13.5938 12.5781 13.6406L12.9062 14.3906C13.0938 14.8594 12.9531 15.4219 12.5312 15.7031L11.9219 16.2188C11.8281 16.2656 11.7812 16.3594 11.7812 16.4531L10.2812 16.2656C10.3281 15.75 10.6094 15.3281 10.9844 15L11.4062 14.7188L11.2188 14.25C11.0312 13.7812 11.0312 13.2656 11.2188 12.7969L11.4062 12.3281L10.9844 12C10.6094 11.7188 10.3281 11.2969 10.2812 10.7812L10.2344 10.2656L9.71875 10.2188C9.20312 10.1719 8.78125 9.89062 8.45312 9.51562L8.17188 9.09375L7.70312 9.28125L7.14062 8.01562L7.70312 9.28125C7.23438 9.46875 6.71875 9.46875 6.25 9.28125L5.78125 9.09375L5.5 9.51562C5.17188 9.89062 4.75 10.1719 4.23438 10.2188L3.76562 10.2656L3.67188 10.7812L2.35938 10.5938L3.67188 10.7812C3.625 11.2969 3.34375 11.7188 2.96875 12L2.03125 10.8281ZM8.5 21.8906V19.5C8.26562 19.5469 8.07812 19.5 7.84375 19.4531L7.14062 19.125C7.04688 19.0781 6.90625 19.0781 6.85938 19.125L6.10938 19.4531C5.875 19.5 5.6875 19.5469 5.5 19.5V21.8906L6.57812 21.1406C6.8125 21 7.14062 21 7.375 21.1406L8.5 21.8906Z" fill="url(#paint0_linear_262_5)"/>
<defs>
<linearGradient id="paint0_linear_262_5" x1="2.00002" y1="25" x2="28.9436" y2="21.0585" gradientUnits="userSpaceOnUse">
<stop stop-color="#00FFE0"/>
<stop offset="1" stop-color="#ED00C7"/>
</linearGradient>
</defs>
</svg>
