<svg width="18" height="18" viewBox="0 0 18 18" fill="none" xmlns="http://www.w3.org/2000/svg">
<path d="M9.0498 6C10.7061 6 12.0186 7.375 12.0186 9C12.0186 10.6562 10.7061 12 9.0498 12C7.3623 12 6.0498 10.5938 6.0498 8.96875C6.0498 7.34375 7.3623 6 9.0498 6Z" fill="#FAFBFF"/>
<path opacity="0.4" d="M16.9561 11.8438C17.1436 12.1562 16.9873 12.5312 16.6436 12.5938L13.2373 13.2188L12.6123 16.625C12.5498 16.9688 12.1748 17.125 11.8936 16.9375L9.0498 14.9688L6.1748 16.9375C5.89355 17.125 5.51855 16.9688 5.45605 16.625L4.83105 13.2188L1.4248 12.5938C1.08105 12.5312 0.924805 12.1562 1.1123 11.875L3.08105 9L1.1123 6.15625C0.924805 5.875 1.08105 5.5 1.4248 5.4375L4.83105 4.8125L5.4248 1.40625C5.4873 1.0625 5.8623 0.90625 6.1748 1.09375L9.0498 3.0625L11.8936 1.0625C12.1748 0.875 12.5498 1.03125 12.6123 1.375L13.2373 4.78125L16.6436 5.40625C16.9873 5.46875 17.1436 5.84375 16.9561 6.15625L14.9873 9L16.9561 11.8438ZM9.0498 13C11.2373 13 13.0186 11.2188 13.0186 9C13.0186 6.84375 11.2061 5.03125 9.0498 5.03125C6.8623 5.03125 5.0498 6.8125 5.0498 9C5.0498 11.1875 6.83105 13 9.0498 13Z" fill="#FAFBFF"/>
</svg>
