<svg width="24" height="22" viewBox="0 0 24 22" fill="none" xmlns="http://www.w3.org/2000/svg">
<path d="M22.4531 10.9531L16.2656 5.09375C16.2188 5.04688 16.125 5 16.0312 5C15.8906 5 15.75 5.14062 15.75 5.32812V8C15.75 8.42188 15.375 8.75 15 8.75H9.375C9.14062 8.75 9 8.9375 9 9.125V12.875C9 13.1094 9.14062 13.25 9.375 13.25H15C15.375 13.25 15.75 13.625 15.75 14V16.7188C15.75 16.8594 15.8906 17 16.0312 17C16.125 17 16.2188 17 16.2656 16.9531L22.4531 11.0938C22.4531 11.0938 22.5 11.0469 22.5 11L22.4531 10.9531ZM24 11C24 11.4688 23.8125 11.8906 23.4844 12.2188L17.2969 18.0312C16.9688 18.3594 16.5 18.5 16.0312 18.5C15.0469 18.5 14.25 17.7031 14.25 16.7188V14.75H9.375C8.29688 14.75 7.5 13.9531 7.5 12.875V9.125C7.5 8.09375 8.29688 7.25 9.375 7.25H14.25V5.32812C14.25 4.34375 15.0469 3.5 16.0312 3.5C16.5 3.5 16.9688 3.6875 17.2969 4.01562L23.4844 9.82812C23.8125 10.1562 24 10.5781 24 11ZM8.25 2H3.75C2.48438 2 1.5 3.03125 1.5 4.25V17.75C1.5 19.0156 2.48438 20 3.75 20H8.25C8.625 20 9 20.375 9 20.75C9 21.1719 8.625 21.5 8.25 21.5H3.75C1.64062 21.5 0 19.8594 0 17.75V4.25C0 2.1875 1.64062 0.5 3.75 0.5H8.25C8.625 0.5 9 0.875 9 1.25C9 1.67188 8.625 2 8.25 2Z" fill="#FAFBFF"/>
</svg>
