<svg width="22" height="22" viewBox="0 0 22 22" fill="none" xmlns="http://www.w3.org/2000/svg">
<path d="M7.25 0.5C7.625 0.5 8 0.875 8 1.25C8 1.67188 7.625 2 7.25 2H2V7.25C2 7.67188 1.625 8 1.25 8C0.828125 8 0.5 7.67188 0.5 7.25V1.25C0.5 0.875 0.828125 0.5 1.25 0.5H7.25ZM0.5 14.75C0.5 14.375 0.828125 14 1.25 14C1.625 14 2 14.375 2 14.75V20H7.25C7.625 20 8 20.375 8 20.75C8 21.1719 7.625 21.5 7.25 21.5H1.25C0.828125 21.5 0.5 21.1719 0.5 20.75V14.75ZM20.75 0.5C21.125 0.5 21.5 0.875 21.5 1.25V7.25C21.5 7.67188 21.125 8 20.75 8C20.3281 8 20 7.67188 20 7.25V2H14.75C14.3281 2 14 1.67188 14 1.25C14 0.875 14.3281 0.5 14.75 0.5H20.75ZM20 14.75C20 14.375 20.3281 14 20.75 14C21.125 14 21.5 14.375 21.5 14.75V20.75C21.5 21.1719 21.125 21.5 20.75 21.5H14.75C14.3281 21.5 14 21.1719 14 20.75C14 20.375 14.3281 20 14.75 20H20V14.75Z" fill="url(#paint0_linear_359_354)"/>
<defs>
<linearGradient id="paint0_linear_359_354" x1="-0.999982" y1="23" x2="25.9436" y2="19.0585" gradientUnits="userSpaceOnUse">
<stop stop-color="#00FFE0"/>
<stop offset="1" stop-color="#ED00C7"/>
</linearGradient>
</defs>
</svg>
