<svg width="24" height="24" viewBox="0 0 24 24" fill="none" xmlns="http://www.w3.org/2000/svg">
<path d="M24 1.07812V6.375V6.42188V17.25C24 19.3594 21.9844 21 19.5 21C17.0156 21 15 19.3594 15 17.25C15 15.1875 17.0156 13.5 19.5 13.5C20.625 13.5 21.7031 13.875 22.5 14.4844V7.40625L9 11.5781V20.25C9 22.3594 6.98438 24 4.5 24C2.01562 24 0 22.3594 0 20.25C0 18.1875 2.01562 16.5 4.5 16.5C5.625 16.5 6.70312 16.875 7.5 17.4844V10.875V5.25C7.5 4.92188 7.6875 4.64062 8.01562 4.54688L22.5938 0.046875C22.6875 0.046875 22.7812 0 22.9219 0C23.4844 0 24 0.515625 24 1.07812ZM22.5 17.25C22.5 16.2656 21.4219 15 19.5 15C17.5312 15 16.5 16.2656 16.5 17.25C16.5 18.2812 17.5312 19.5 19.5 19.5C21.4219 19.5 22.5 18.2812 22.5 17.25ZM7.5 20.25C7.5 19.2656 6.42188 18 4.5 18C2.53125 18 1.5 19.2656 1.5 20.25C1.5 21.2812 2.53125 22.5 4.5 22.5C6.42188 22.5 7.5 21.2812 7.5 20.25ZM22.5 5.85938V1.6875L9 5.8125V9.98438L22.5 5.85938Z" fill="#FAFBFF"/>
</svg>
