<svg width="22" height="24" viewBox="0 0 22 24" fill="none" xmlns="http://www.w3.org/2000/svg">
<path d="M10.2031 0.75C10.2031 0.375 10.5781 0 10.9531 0C11.375 0 11.75 0.375 11.75 0.75V1.54688C15.5 1.92188 18.5 5.10938 18.5 9V10.4062C18.5 12.4219 19.2969 14.3906 20.75 15.8438L20.8906 15.9844C21.2656 16.3594 21.5 16.875 21.5 17.4375C21.5 18.6094 20.5625 19.5 19.3906 19.5H2.5625C1.39062 19.5 0.5 18.6094 0.5 17.4375C0.5 16.875 0.6875 16.3594 1.0625 15.9844L1.20312 15.8438C2.65625 14.3906 3.5 12.4219 3.5 10.4062V9C3.5 5.10938 6.45312 1.92188 10.25 1.54688L10.2031 0.75ZM10.9531 3C7.67188 3 4.95312 5.71875 4.95312 9V10.4062C4.95312 12.8438 4.01562 15.1875 2.28125 16.9219L2.14062 17.0156C2.04688 17.1562 1.95312 17.2969 1.95312 17.4375C1.95312 17.7656 2.23438 18 2.5625 18H19.3906C19.7188 18 20 17.7656 20 17.4375C20 17.2969 19.9062 17.1562 19.8125 17.0156L19.6719 16.9219C17.9375 15.1875 17 12.8438 17 10.4062V9C17 5.71875 14.2812 3 10.9531 3ZM10.9531 22.5C11.6094 22.5 12.1719 22.125 12.4062 21.5156C12.5469 21.1406 12.9688 20.9062 13.3438 21.0469C13.7188 21.1875 13.9531 21.6094 13.8125 22.0312C13.3906 23.2031 12.2656 24 10.9531 24C9.6875 24 8.5625 23.2031 8.14062 22.0312C8 21.6094 8.23438 21.1875 8.60938 21.0469C8.98438 20.9062 9.40625 21.1406 9.54688 21.5156C9.78125 22.125 10.3438 22.5 10.9531 22.5Z" fill="#FAFBFF"/>
</svg>
