<svg width="50" height="50" viewBox="0 0 50 50" fill="none" xmlns="http://www.w3.org/2000/svg">
<path d="M25.5625 13.2812L28.0938 16.1406L31.2812 13.8906C31.5156 13.75 31.8438 13.7031 32.0781 13.8438C32.3125 13.9844 32.5 14.2188 32.5 14.5V20.5C32.5 23.8281 29.7812 26.5 26.5 26.5H25.75V31.6094C27.5781 28.5625 30.9062 26.5 34.75 26.5H35.6875C36.3906 26.5 37 27.1094 37 27.8125C37 32.9219 32.875 37 27.8125 37H25.75H25H24.25H22.1875C17.0781 37 13 32.9219 13 27.8125C13 27.1094 13.5625 26.5 14.3125 26.5H15.25C19.0469 26.5 22.375 28.5625 24.25 31.6094V26.5H23.5C20.1719 26.5 17.5 23.8281 17.5 20.5V14.5C17.5 14.2188 17.6406 13.9844 17.875 13.8438C18.1094 13.75 18.4375 13.75 18.6719 13.8906L21.8594 16.1406L24.4375 13.2812C24.5781 13.0938 24.7656 13 25 13C25.1875 13 25.375 13.0938 25.5625 13.2812ZM25 25H26.5C28.9844 25 31 22.9844 31 20.5V15.9531L28.4219 17.7812C28.0938 17.9688 27.6719 17.9219 27.3906 17.6406L24.9531 14.9219L22.5156 17.6406C22.2812 17.9219 21.8594 17.9688 21.5312 17.7812L19 15.9531V20.5C19 22.9844 21.0156 25 23.5 25H25ZM22.1875 35.5H24.1094C23.4062 31.2812 19.7031 28 15.25 28H14.5C14.5938 32.1719 17.9688 35.5 22.1875 35.5ZM27.8125 35.5C31.9844 35.5 35.3594 32.1719 35.5 28H34.75C30.25 28 26.5469 31.2812 25.8438 35.5H27.8125Z" fill="url(#paint0_linear_15_500)"/>
<defs>
<linearGradient id="paint0_linear_15_500" x1="13" y1="37" x2="39.9436" y2="33.0585" gradientUnits="userSpaceOnUse">
<stop stop-color="#00FFE0"/>
<stop offset="1" stop-color="#ED00C7"/>
</linearGradient>
</defs>
</svg>
