<svg width="652" height="652" viewBox="0 0 652 652" fill="none" xmlns="http://www.w3.org/2000/svg">
<g opacity="0.1" clip-path="url(#clip0_73_6859)">
<path d="M326.021 481.412L288.205 494.026C270.88 499.794 252.743 502.735 234.481 502.735C203.678 502.735 173.463 494.37 147.064 478.523L134.112 470.751L155.435 449.427C127.958 435.7 106.489 412.346 95.0782 383.839L91.4653 374.796C126.329 360.844 164.358 356.747 201.398 362.922L208.743 364.134V342.811C255.814 356.268 294.015 390.747 312.204 436.21L326.021 470.751V481.412Z" fill="url(#paint0_linear_73_6859)"/>
<path d="M326.021 545.382L363.836 557.996C381.161 563.764 399.298 566.705 417.56 566.705C448.364 566.705 478.578 558.339 504.977 542.493L517.929 534.72L496.606 513.397C524.083 499.669 545.552 476.316 556.963 447.808L560.576 438.766C525.702 424.814 487.673 420.717 450.633 426.891L443.298 428.104V406.781C396.227 420.238 358.026 454.717 339.837 500.179L326.021 534.72V545.382Z" fill="url(#paint1_linear_73_6859)"/>
<path d="M176.758 204.21L172.953 205.736C143.055 217.699 123.45 246.643 123.45 278.842L134.242 276.145C155.393 270.856 177.123 268.18 198.935 268.18H453.106C474.919 268.18 496.648 270.856 517.805 276.145L528.591 278.842C528.591 246.643 508.986 217.699 479.089 205.736L475.283 204.21H176.758Z" fill="url(#paint2_linear_73_6859)"/>
<path d="M187.706 106.148C174.348 103.43 161.588 98.1514 150.146 90.5196L144.773 86.9327L142.394 94.07C136.918 110.531 134.112 127.768 134.112 145.113C134.112 162.47 140.999 179.113 153.28 191.399C161.672 199.785 172.172 205.736 183.677 208.604C199.81 212.644 215.151 219.344 229.077 228.433L411.314 236.195L421.803 229.204C436.026 219.724 451.763 212.753 468.354 208.604C479.859 205.725 490.359 199.785 498.751 191.399C511.032 179.113 517.93 162.47 517.93 145.113C517.93 127.768 515.124 110.531 509.647 94.07L507.268 86.9327L501.896 90.5196C484.539 102.087 464.153 108.256 443.298 108.256L187.706 106.148Z" fill="url(#paint3_linear_73_6859)"/>
<path d="M251.39 193.549L235.72 185.724C206.119 170.914 187.42 140.657 187.42 107.563C187.42 93.9918 190.575 80.6231 196.645 68.4883L219.405 22.963L237.276 28.9237C246.626 32.0368 256.424 33.6246 266.263 33.6246C284.369 33.6246 302.063 28.2626 317.14 18.2309L326.021 12.3014L347.344 22.963L356.428 18.4131C364.477 14.3941 373.347 12.3014 382.348 12.3014C400.579 12.3014 417.743 20.8963 428.691 35.4831C438.171 48.1177 443.299 63.4907 443.299 79.2904V91.6023C443.299 113.92 428.108 133.374 406.462 138.793C402.604 139.751 398.637 140.241 394.66 140.241H385.779C360.713 140.241 336.214 147.664 315.359 161.564L251.39 193.549Z" fill="url(#paint4_linear_73_6859)"/>
<path d="M304.698 214.872H258.824C237.053 214.872 219.405 232.52 219.405 254.291C219.405 263.354 222.081 272.199 227.115 279.737C235.611 292.502 249.942 300.165 265.284 300.165C289.439 300.165 311.523 313.815 322.33 335.424L326.021 342.811L356.845 318.162C371.395 306.511 389.491 300.165 408.128 300.165H411.314C428.982 300.165 443.299 285.849 443.299 268.18C443.299 250.517 428.982 236.195 411.314 236.195H379.329L304.698 214.872Z" fill="url(#paint5_linear_73_6859)"/>
<path d="M251.39 214.872V140.241H297.597L311.372 198.442L315.359 214.872H251.39Z" fill="url(#paint6_linear_73_6859)"/>
<path d="M406.462 138.794L385.779 140.241C361.832 140.241 338.4 147.024 318.165 159.752L320.914 164.006L379.329 236.195H400.652C421.366 201.665 432.382 162.194 432.595 121.927C426.124 130.037 417.092 136.128 406.462 138.794Z" fill="url(#paint7_linear_73_6859)"/>
<path d="M251.39 76.2711L238.776 88.8849C233.2 94.4604 230.066 102.03 230.066 109.911C230.066 115.784 231.805 121.52 235.069 126.414C245.273 141.714 262.436 150.902 280.829 150.902H294.036V181.601C294.036 196.079 299.794 209.968 310.028 220.203C320.263 230.438 334.158 236.195 348.635 236.195H379.329L251.39 76.2711Z" fill="url(#paint8_linear_73_6859)"/>
<path d="M418.659 25.1286C387.367 -1.35359 347.344 22.963 347.344 22.963L326.021 12.3014C310.69 22.963 301.116 26.7164 301.116 26.7164C282.885 46.7746 272.713 72.9549 272.713 100.176V102.925L379.329 236.195H400.652C421.273 201.826 432.252 162.569 432.575 122.515L432.627 122.416C432.627 122.416 437.275 116.361 440.389 107.642C441.435 104.966 441.935 102.925 441.935 102.925C451.232 46.9516 418.659 25.1286 418.659 25.1286Z" fill="url(#paint9_linear_73_6859)"/>
<path d="M406.461 138.794C402.604 139.751 398.637 140.241 394.66 140.241H385.778C361.842 140.241 338.442 147.086 318.217 159.804L379.328 236.195H400.652C421.272 201.826 432.251 162.569 432.574 122.515L432.626 122.416C432.626 122.416 434.334 120.063 436.338 116.455C429.867 127.289 419.362 135.561 406.461 138.794Z" fill="url(#paint10_linear_73_6859)"/>
<path d="M443.481 80.5295C443.481 80.4931 443.481 80.4619 443.481 80.4306H443.47C443.023 71.69 441.091 55.7601 433.855 42.964C433.584 42.4747 433.381 42.0478 433.053 41.496C432.585 40.7724 432.064 40.054 431.57 39.3408C431.07 38.6171 430.674 37.956 430.07 37.1439C410.356 10.3441 382.348 12.3015 382.348 12.3015C382.348 12.3015 368.667 10.9688 347.344 22.9631L326.021 12.3015L301.116 26.7165C301.116 26.7165 283.494 46.4624 278.767 64.813L279.824 65.9948C315.541 105.913 366.366 128.856 419.877 129.454L419.971 129.579H425.047C425.047 129.579 431.679 125.18 437.051 115.201C437.265 114.826 437.468 114.388 437.681 114.003C438.244 112.884 438.79 111.765 439.3 110.494C440.248 108.386 441.018 106.038 441.7 103.493C441.752 103.3 441.794 103.118 441.841 102.925C442.476 100.4 442.924 97.6725 443.194 94.6843C443.397 92.9039 443.439 90.9517 443.491 89.0151C443.481 88.2863 443.632 87.7032 443.595 86.9432C443.595 86.9328 443.673 84.4496 443.481 80.5295Z" fill="url(#paint11_linear_73_6859)"/>
<path d="M387.742 103.758C376.044 80.3785 352.154 65.6095 326.021 65.6095L315.359 97.5943L315.667 97.2143C338.515 112.546 364.466 122.791 391.761 127.184L387.742 103.758Z" fill="url(#paint12_linear_73_6859)"/>
<path d="M564.543 428.875C529.445 414.834 491.328 410.279 453.96 415.589V392.657L440.368 396.536C395.597 409.332 357.902 440.739 336.682 481.86V382.282C336.682 360.47 346.459 340.125 363.508 326.491C376.112 316.381 391.964 310.827 408.128 310.827H411.314C431.122 310.827 447.682 297.182 452.445 278.842H453.106C474.024 278.842 494.925 281.413 515.223 286.489L539.253 292.502V278.842C539.253 248.481 524.062 221.156 499.579 204.799C501.917 202.966 504.186 201.045 506.3 198.937C520.668 184.563 528.591 165.448 528.591 145.113C528.591 126.596 525.619 108.277 519.752 90.6966L512.974 70.3156L495.977 81.6384C483.186 90.1551 468.651 95.21 453.512 96.8395C453.674 95.1007 453.96 93.3828 453.96 91.6024V79.2905C453.96 61.2938 448.01 43.469 437.223 29.0852C424.334 11.9006 403.817 1.63985 382.348 1.63985C371.76 1.63985 361.15 4.14907 351.665 8.8812L347.344 11.0468L325.266 0L311.247 9.34973C290.626 23.0932 264.217 26.654 240.655 18.7984L214.011 9.91717L187.123 63.7042C182.62 72.6999 179.668 82.4453 178.101 92.4145C170.35 89.7699 162.952 86.2299 156.065 81.6488L139.068 70.326L132.29 90.6966C126.423 108.277 123.45 126.596 123.45 145.113C123.45 165.448 131.374 184.563 145.742 198.937C147.855 201.045 150.125 202.966 152.463 204.799C127.995 221.156 112.789 248.481 112.789 278.842V292.502L136.819 286.5C157.122 281.413 178.018 278.842 198.935 278.842H214.381C215.516 281.179 216.781 283.47 218.233 285.656C228.744 301.414 246.324 310.827 265.284 310.827C285.53 310.827 303.729 322.076 312.793 340.193L315.359 345.331V417.89C294.145 376.769 256.444 345.362 211.674 332.566L198.082 328.677V351.609C160.714 346.31 122.586 350.854 87.4986 364.895L77.6074 368.861L85.1767 387.795C95.7603 414.246 114.262 436.538 138.016 451.765L116.917 472.864L141.577 487.649C169.637 504.495 201.762 513.397 234.481 513.397C253.904 513.397 273.119 510.284 291.574 504.136L315.359 496.212V651.998H336.682V560.182L360.468 568.116C378.923 574.254 398.138 577.367 417.561 577.367C450.285 577.367 482.415 568.465 510.454 551.634L535.114 536.844L514.015 515.745C537.769 500.507 556.271 478.216 566.854 451.765L574.424 432.831L564.543 428.875ZM516.503 264.854C495.742 259.981 474.43 257.518 453.106 257.518H452.445C449.858 247.565 443.866 239.001 435.667 233.254C446.734 226.903 458.546 222.051 470.947 218.948C473.217 218.381 475.403 217.558 477.61 216.793C497.825 225.836 512.12 243.681 516.503 264.854ZM334.381 162.944C350.317 155.062 367.814 150.902 385.779 150.902H394.66C399.481 150.902 404.312 150.309 409.044 149.132C413.084 148.122 416.858 146.597 420.492 144.838C417.274 173.157 408.414 200.587 394.374 225.534H384.446L334.381 162.944ZM283.374 133.322V140.241H280.829C265.976 140.241 252.181 132.864 243.95 120.511C241.837 117.351 240.728 113.686 240.728 109.911C240.728 104.888 242.763 99.9734 246.314 96.4126L250.505 92.2219L283.374 133.322ZM262.051 158.722C268.074 160.523 274.368 161.564 280.829 161.564H283.374V181.601C283.374 189.447 284.827 197.058 287.456 204.21H262.051V158.722ZM283.416 99.2394C283.458 94.7155 283.874 90.2384 284.525 85.8135C307.191 107.001 334.303 122.504 363.69 131.406C348.698 133.838 334.241 138.752 320.81 145.967L283.416 99.2394ZM328.322 92.4353L333.549 76.7553C352.696 79.1968 369.391 90.91 378.199 108.527L380.948 114.014C362.347 109.656 344.606 102.352 328.322 92.4353ZM304.698 159.976L357.141 225.534H348.635C337.068 225.534 325.745 220.843 317.566 212.665C309.388 204.492 304.698 193.169 304.698 181.601V159.976ZM501.375 103.383C505.285 116.96 507.268 130.969 507.268 145.113C507.268 159.752 501.563 173.506 491.224 183.861C484.196 190.873 475.403 195.855 465.772 198.265C450.686 202.04 436.39 208.073 423.043 215.991C435.667 187.526 442.497 156.78 443.137 125.498C444.673 123.301 446.115 121.042 447.338 118.652C466.402 117.991 484.888 112.894 501.375 103.383ZM323.059 27.1017L326.791 24.6081L347.344 34.8845L361.192 27.9555C367.73 24.6914 375.044 22.9631 382.348 22.9631C397.143 22.9631 411.272 30.0326 420.164 41.8812C428.202 52.5948 432.637 65.8906 432.637 79.2905V91.6024C432.637 102.191 428.233 111.895 421.038 118.865C416.27 118.845 411.548 118.517 406.847 118.111L397.284 98.9843C383.702 71.8253 356.397 54.9479 326.021 54.9479H318.332L310.101 79.6445C303.386 74.3137 296.998 68.5196 291.063 62.2101C295.145 52.4439 300.798 43.3284 307.91 35.2281C313.142 32.9011 318.248 30.2981 323.059 27.1017ZM206.187 73.2569L224.808 36.0038L233.913 39.0336C247.667 43.6147 262.181 44.9839 276.404 43.5523C270.964 53.6725 266.997 64.4902 264.654 75.7609L252.285 60.2995L231.238 81.3468C223.71 88.8745 219.405 99.281 219.405 109.922C219.405 117.918 221.753 125.67 226.198 132.343C230.217 138.356 235.173 143.484 240.728 147.779V176.312L240.494 176.192C214.329 163.1 198.082 136.81 198.082 107.564C198.082 95.7098 200.887 83.8404 206.187 73.2569ZM144.773 145.113C144.773 130.969 146.757 116.96 150.672 103.383C159.038 108.214 167.929 111.936 177.248 114.55C179.679 149.059 199.648 179.597 230.962 195.256L240.728 200.139V207.719C236.006 209.562 231.706 212.165 227.807 215.278C214.834 207.719 200.929 201.93 186.269 198.255C176.644 195.845 167.846 190.863 160.818 183.85C150.479 173.506 144.773 159.752 144.773 145.113ZM198.935 257.518C177.612 257.518 156.299 259.981 135.543 264.854C139.922 243.671 154.222 225.825 174.447 216.793C176.644 217.558 178.825 218.37 181.1 218.948C192.719 221.858 203.818 226.252 214.235 231.984C210.836 238.736 208.743 246.243 208.743 254.291C208.743 255.379 208.915 256.446 208.977 257.518H198.935ZM265.284 289.503C253.482 289.503 242.529 283.641 235.985 273.823C232.112 268.024 230.066 261.272 230.066 254.291C230.066 238.434 242.966 225.534 258.824 225.534H300.486C301.158 226.273 301.777 227.038 302.49 227.741C314.818 240.068 331.201 246.857 348.635 246.857H411.314C423.074 246.857 432.637 256.42 432.637 268.18C432.637 279.94 423.074 289.503 411.314 289.503H408.128C387.132 289.503 366.559 296.724 350.181 309.837C342.857 315.699 336.672 322.576 331.534 330.104C318.738 305.058 293.437 289.503 265.284 289.503ZM284.837 483.911C241.134 498.451 191.996 493.047 152.546 469.376L151.312 468.632L173.442 446.507L160.214 439.885C135.413 427.5 116.011 406.614 105.443 381.002C135.679 370.777 168.018 368.143 199.659 373.432L219.405 376.717V357.695C256.83 372.537 287.258 402.549 302.298 440.177L307.696 453.649L304.463 451.135C258.542 415.428 203.787 392.751 146.096 385.546L143.451 406.698C197.337 413.434 248.49 434.622 291.371 467.96L303.761 477.596L284.837 483.911ZM491.843 503.855L478.61 510.477L500.745 532.602L499.496 533.346C460.051 557.007 410.897 562.421 367.22 547.881L348.292 541.566L360.671 531.94C403.562 498.592 454.705 477.404 508.601 470.667L505.956 449.516C448.265 456.721 393.51 479.398 347.589 515.105L344.361 517.619L349.754 504.136C364.81 466.508 395.238 436.496 432.658 421.654V440.676L452.414 437.391C484.04 432.113 516.384 434.736 546.619 444.961C536.046 470.594 516.628 491.47 491.843 503.855Z" fill="black"/>
</g>
<defs>
<linearGradient id="paint0_linear_73_6859" x1="91.4655" y1="502.735" x2="348.587" y2="447.568" gradientUnits="userSpaceOnUse">
<stop stop-color="#00FFE0"/>
<stop offset="1" stop-color="#ED00C7"/>
</linearGradient>
<linearGradient id="paint1_linear_73_6859" x1="326.021" y1="566.705" x2="583.143" y2="511.538" gradientUnits="userSpaceOnUse">
<stop stop-color="#00FFE0"/>
<stop offset="1" stop-color="#ED00C7"/>
</linearGradient>
<linearGradient id="paint2_linear_73_6859" x1="123.451" y1="278.842" x2="408.346" y2="52.5964" gradientUnits="userSpaceOnUse">
<stop stop-color="#00FFE0"/>
<stop offset="1" stop-color="#ED00C7"/>
</linearGradient>
<linearGradient id="paint3_linear_73_6859" x1="134.112" y1="236.195" x2="519.668" y2="91.1608" gradientUnits="userSpaceOnUse">
<stop stop-color="#00FFE0"/>
<stop offset="1" stop-color="#ED00C7"/>
</linearGradient>
<linearGradient id="paint4_linear_73_6859" x1="187.42" y1="193.549" x2="468.827" y2="135.431" gradientUnits="userSpaceOnUse">
<stop stop-color="#00FFE0"/>
<stop offset="1" stop-color="#ED00C7"/>
</linearGradient>
<linearGradient id="paint5_linear_73_6859" x1="219.405" y1="342.811" x2="460.347" y2="281.129" gradientUnits="userSpaceOnUse">
<stop stop-color="#00FFE0"/>
<stop offset="1" stop-color="#ED00C7"/>
</linearGradient>
<linearGradient id="paint6_linear_73_6859" x1="251.39" y1="214.872" x2="323.607" y2="205.817" gradientUnits="userSpaceOnUse">
<stop stop-color="#00FFE0"/>
<stop offset="1" stop-color="#ED00C7"/>
</linearGradient>
<linearGradient id="paint7_linear_73_6859" x1="318.165" y1="236.195" x2="446.622" y2="217.377" gradientUnits="userSpaceOnUse">
<stop stop-color="#00FFE0"/>
<stop offset="1" stop-color="#ED00C7"/>
</linearGradient>
<linearGradient id="paint8_linear_73_6859" x1="230.067" y1="236.195" x2="398.09" y2="213.254" gradientUnits="userSpaceOnUse">
<stop stop-color="#00FFE0"/>
<stop offset="1" stop-color="#ED00C7"/>
</linearGradient>
<linearGradient id="paint9_linear_73_6859" x1="272.713" y1="236.195" x2="466.256" y2="214.585" gradientUnits="userSpaceOnUse">
<stop stop-color="#00FFE0"/>
<stop offset="1" stop-color="#ED00C7"/>
</linearGradient>
<linearGradient id="paint10_linear_73_6859" x1="318.217" y1="236.195" x2="450.9" y2="217.048" gradientUnits="userSpaceOnUse">
<stop stop-color="#00FFE0"/>
<stop offset="1" stop-color="#ED00C7"/>
</linearGradient>
<linearGradient id="paint11_linear_73_6859" x1="278.767" y1="129.579" x2="460.127" y2="92.302" gradientUnits="userSpaceOnUse">
<stop stop-color="#00FFE0"/>
<stop offset="1" stop-color="#ED00C7"/>
</linearGradient>
<linearGradient id="paint12_linear_73_6859" x1="315.359" y1="127.184" x2="400.172" y2="111.79" gradientUnits="userSpaceOnUse">
<stop stop-color="#00FFE0"/>
<stop offset="1" stop-color="#ED00C7"/>
</linearGradient>
<clipPath id="clip0_73_6859">
<rect width="652" height="652" fill="white"/>
</clipPath>
</defs>
</svg>
