<svg width="24" height="20" viewBox="0 0 24 20" fill="none" xmlns="http://www.w3.org/2000/svg">
<path d="M12 3.125C9.42188 3.125 7.35156 4.29688 5.75 5.78125C4.22656 7.1875 3.21094 8.82812 2.66406 10C3.21094 11.1719 4.22656 12.8516 5.75 14.2578C7.35156 15.7422 9.42188 16.875 12 16.875C14.5391 16.875 16.6094 15.7422 18.2109 14.2578C19.7344 12.8516 20.7891 11.1719 21.2969 10C20.7891 8.82812 19.7344 7.1875 18.25 5.78125C16.6094 4.29688 14.5391 3.125 12 3.125ZM4.46094 4.41406C6.29688 2.69531 8.83594 1.25 12 1.25C15.125 1.25 17.6641 2.69531 19.5 4.41406C21.3359 6.13281 22.5469 8.125 23.1328 9.53125C23.25 9.84375 23.25 10.1953 23.1328 10.5078C22.5469 11.875 21.3359 13.9062 19.5 15.625C17.6641 17.3438 15.125 18.75 12 18.75C8.83594 18.75 6.29688 17.3438 4.46094 15.625C2.625 13.9062 1.41406 11.875 0.828125 10.5078C0.710938 10.1953 0.710938 9.84375 0.828125 9.53125C1.41406 8.125 2.625 6.09375 4.46094 4.41406ZM12 13.125C13.7188 13.125 15.125 11.7578 15.125 10C15.125 8.28125 13.7188 6.875 12 6.875C11.9609 6.875 11.9219 6.875 11.9219 6.875C11.9609 7.10938 12 7.30469 12 7.5C12 8.90625 10.8672 10 9.5 10C9.26562 10 9.07031 10 8.875 9.92188C8.875 9.96094 8.875 10 8.875 10C8.875 11.7578 10.2422 13.125 12 13.125ZM12 5C13.7578 5 15.3984 5.97656 16.2969 7.5C17.1953 9.0625 17.1953 10.9766 16.2969 12.5C15.3984 14.0625 13.7578 15 12 15C10.2031 15 8.5625 14.0625 7.66406 12.5C6.76562 10.9766 6.76562 9.0625 7.66406 7.5C8.5625 5.97656 10.2031 5 12 5Z" fill="#0F0731"/>
</svg>
