<svg width="498" height="652" viewBox="0 0 498 652" fill="none" xmlns="http://www.w3.org/2000/svg">
<path d="M487.543 428.875C452.445 414.834 414.328 410.279 376.96 415.589V392.657L363.368 396.536C318.597 409.332 280.902 440.739 259.682 481.86V382.282C259.682 360.47 269.459 340.125 286.508 326.491C299.112 316.381 314.964 310.827 331.128 310.827H334.314C354.122 310.827 370.682 297.182 375.445 278.842H376.106C397.024 278.842 417.925 281.413 438.223 286.489L462.253 292.502V278.842C462.253 248.481 447.062 221.156 422.579 204.799C424.917 202.966 427.186 201.045 429.3 198.937C443.668 184.563 451.591 165.448 451.591 145.113C451.591 126.596 448.619 108.277 442.752 90.6966L435.974 70.3156L418.977 81.6384C406.186 90.1551 391.651 95.21 376.512 96.8395C376.674 95.1007 376.96 93.3828 376.96 91.6024V79.2905C376.96 61.2938 371.01 43.469 360.223 29.0852C347.334 11.9006 326.817 1.63985 305.348 1.63985C294.76 1.63985 284.15 4.14907 274.665 8.8812L270.344 11.0468L248.266 0L234.247 9.34973C213.626 23.0932 187.217 26.654 163.655 18.7984L137.011 9.91717L110.123 63.7042C105.62 72.6999 102.668 82.4453 101.101 92.4145C93.3499 89.7699 85.9524 86.2299 79.065 81.6488L62.0678 70.326L55.2898 90.6966C49.4228 108.277 46.4503 126.596 46.4503 145.113C46.4503 165.448 54.3736 184.563 68.7418 198.937C70.8553 201.045 73.1251 202.966 75.4625 204.799C50.995 221.156 35.7886 248.481 35.7886 278.842V292.502L59.8189 286.5C80.1218 281.413 101.018 278.842 121.935 278.842H137.381C138.516 281.179 139.781 283.47 141.233 285.656C151.744 301.414 169.324 310.827 188.284 310.827C208.53 310.827 226.729 322.076 235.793 340.193L238.359 345.331V417.89C217.145 376.769 179.444 345.362 134.674 332.566L121.082 328.677V351.609C83.7138 346.31 45.5861 350.854 10.4986 364.895L0.607422 368.861L8.17675 387.795C18.7603 414.246 37.2619 436.538 61.0163 451.765L39.9169 472.864L64.5771 487.649C92.6367 504.495 124.762 513.397 157.481 513.397C176.904 513.397 196.119 510.284 214.574 504.136L238.359 496.212V651.998H259.682V560.182L283.468 568.116C301.923 574.254 321.138 577.367 340.561 577.367C373.285 577.367 405.415 568.465 433.454 551.634L458.114 536.844L437.015 515.745C460.769 500.507 479.271 478.216 489.854 451.765L497.424 432.831L487.543 428.875ZM439.503 264.854C418.742 259.981 397.43 257.518 376.106 257.518H375.445C372.858 247.565 366.866 239.001 358.667 233.254C369.734 226.903 381.546 222.051 393.947 218.948C396.217 218.381 398.403 217.558 400.61 216.793C420.825 225.836 435.12 243.681 439.503 264.854ZM257.381 162.944C273.317 155.062 290.814 150.902 308.779 150.902H317.66C322.481 150.902 327.312 150.309 332.044 149.132C336.084 148.122 339.858 146.597 343.492 144.838C340.274 173.157 331.414 200.587 317.374 225.534H307.446L257.381 162.944ZM206.374 133.322V140.241H203.829C188.976 140.241 175.181 132.864 166.95 120.511C164.837 117.351 163.728 113.686 163.728 109.911C163.728 104.888 165.763 99.9734 169.314 96.4126L173.505 92.2219L206.374 133.322ZM185.051 158.722C191.074 160.523 197.368 161.564 203.829 161.564H206.374V181.601C206.374 189.447 207.827 197.058 210.456 204.21H185.051V158.722ZM206.416 99.2394C206.458 94.7155 206.874 90.2384 207.525 85.8135C230.191 107.001 257.303 122.504 286.69 131.406C271.698 133.838 257.241 138.752 243.81 145.967L206.416 99.2394ZM251.322 92.4353L256.549 76.7553C275.696 79.1968 292.391 90.91 301.199 108.527L303.948 114.014C285.347 109.656 267.606 102.352 251.322 92.4353ZM227.698 159.976L280.141 225.534H271.635C260.068 225.534 248.745 220.843 240.566 212.665C232.388 204.492 227.698 193.169 227.698 181.601V159.976ZM424.375 103.383C428.285 116.96 430.268 130.969 430.268 145.113C430.268 159.752 424.563 173.506 414.224 183.861C407.196 190.873 398.403 195.855 388.772 198.265C373.686 202.04 359.39 208.073 346.043 215.991C358.667 187.526 365.497 156.78 366.137 125.498C367.673 123.301 369.115 121.042 370.338 118.652C389.402 117.991 407.888 112.894 424.375 103.383ZM246.059 27.1017L249.791 24.6081L270.344 34.8845L284.192 27.9555C290.73 24.6914 298.044 22.9631 305.348 22.9631C320.143 22.9631 334.272 30.0326 343.164 41.8812C351.202 52.5948 355.637 65.8906 355.637 79.2905V91.6024C355.637 102.191 351.233 111.895 344.038 118.865C339.27 118.845 334.548 118.517 329.847 118.111L320.284 98.9843C306.702 71.8253 279.397 54.9479 249.021 54.9479H241.332L233.101 79.6445C226.386 74.3137 219.998 68.5196 214.063 62.2101C218.145 52.4439 223.798 43.3284 230.91 35.2281C236.142 32.9011 241.248 30.2981 246.059 27.1017ZM129.187 73.2569L147.808 36.0038L156.913 39.0336C170.667 43.6147 185.181 44.9839 199.404 43.5523C193.964 53.6725 189.997 64.4902 187.654 75.7609L175.285 60.2995L154.238 81.3468C146.71 88.8745 142.405 99.281 142.405 109.922C142.405 117.918 144.753 125.67 149.198 132.343C153.217 138.356 158.173 143.484 163.728 147.779V176.312L163.494 176.192C137.329 163.1 121.082 136.81 121.082 107.564C121.082 95.7098 123.887 83.8404 129.187 73.2569ZM67.7735 145.113C67.7735 130.969 69.7569 116.96 73.6717 103.383C82.0375 108.214 90.9292 111.936 100.248 114.55C102.679 149.059 122.648 179.597 153.962 195.256L163.728 200.139V207.719C159.006 209.562 154.706 212.165 150.807 215.278C137.834 207.719 123.929 201.93 109.269 198.255C99.6438 195.845 90.8459 190.863 83.8179 183.85C73.4791 173.506 67.7735 159.752 67.7735 145.113ZM121.935 257.518C100.612 257.518 79.2993 259.981 58.5435 264.854C62.9216 243.671 77.2221 225.825 97.4469 216.793C99.6438 217.558 101.825 218.37 104.1 218.948C115.719 221.858 126.818 226.252 137.235 231.984C133.836 238.736 131.743 246.243 131.743 254.291C131.743 255.379 131.915 256.446 131.977 257.518H121.935ZM188.284 289.503C176.482 289.503 165.529 283.641 158.985 273.823C155.112 268.024 153.066 261.272 153.066 254.291C153.066 238.434 165.966 225.534 181.824 225.534H223.486C224.158 226.273 224.777 227.038 225.49 227.741C237.818 240.068 254.201 246.857 271.635 246.857H334.314C346.074 246.857 355.637 256.42 355.637 268.18C355.637 279.94 346.074 289.503 334.314 289.503H331.128C310.132 289.503 289.559 296.724 273.181 309.837C265.857 315.699 259.672 322.576 254.534 330.104C241.738 305.058 216.437 289.503 188.284 289.503ZM207.837 483.911C164.134 498.451 114.996 493.047 75.5458 469.376L74.312 468.632L96.4422 446.507L83.2141 439.885C58.4133 427.5 39.0111 406.614 28.4432 381.002C58.6788 370.777 91.0177 368.143 122.659 373.432L142.405 376.717V357.695C179.83 372.537 210.258 402.549 225.298 440.177L230.696 453.649L227.463 451.135C181.542 415.428 126.787 392.751 69.0958 385.546L66.4512 406.698C120.337 413.434 171.49 434.622 214.371 467.96L226.761 477.596L207.837 483.911ZM414.843 503.855L401.61 510.477L423.745 532.602L422.496 533.346C383.051 557.007 333.897 562.421 290.22 547.881L271.292 541.566L283.671 531.94C326.562 498.592 377.705 477.404 431.601 470.667L428.956 449.516C371.265 456.721 316.51 479.398 270.589 515.105L267.361 517.619L272.754 504.136C287.81 466.508 318.238 436.496 355.658 421.654V440.676L375.414 437.391C407.04 432.113 439.384 434.736 469.619 444.961C459.046 470.594 439.628 491.47 414.843 503.855Z" fill="black"/>
</svg>
